<svg id="Layer_1" data-name="Layer 1" xmlns="http://www.w3.org/2000/svg" viewBox="0 0 36 36"><defs><style>.cls-1{fill:#4e598f;}.cls-2{fill:#364270;}.cls-3{fill:#fff;}.cls-4{fill:#d1d1d1;}</style></defs><title>fb-icon</title><circle class="cls-1" cx="18" cy="18" r="18"/><path class="cls-2" d="M274,255l-8.48-8.48c-.14,0-.49-.12-.64-.09-3.64.61-7.15,0-10.67,1-1.7.48-1.82,2.55-2.42,3.88-.85,2.42-.73,5.09-1.82,7.39-.73,1.58-2.42,2.55-3,4.36-.2.76-.19,1.71-.42,2.44L255,274l1,0a18,18,0,0,0,18-18C274,255.66,274,255.33,274,255Z" transform="translate(-238 -238)"/><path class="cls-3" d="M263.53,245.7H248.47a2.78,2.78,0,0,0-2.78,2.78v15.05a2.78,2.78,0,0,0,2.78,2.78h7.42v-7.36H254a.45.45,0,0,1-.45-.45v-2.37a.45.45,0,0,1,.45-.45h1.91v-2.29a3.75,3.75,0,0,1,4-4.11h1.95a.45.45,0,0,1,.45.45v2a.45.45,0,0,1-.45.45h-1.2c-1.29,0-1.54.61-1.54,1.51v2h2.84a.45.45,0,0,1,.45.5l-.28,2.37a.45.45,0,0,1-.45.4h-2.54v7.36h4.42a2.78,2.78,0,0,0,2.78-2.78V248.47a2.78,2.78,0,0,0-2.78-2.78Z" transform="translate(-238 -238)"/><polygon class="cls-3" points="17.9 28.3 17.91 20.94 17.88 20.94 17.88 28.3 17.9 28.3"/><path class="cls-4" d="M263.53,245.7h-7.65v10h0v-2.29a3.75,3.75,0,0,1,4-4.11h1.95a.45.45,0,0,1,.45.45v2a.45.45,0,0,1-.45.45h-1.2c-1.29,0-1.54.61-1.54,1.51v2h2.84a.45.45,0,0,1,.45.5l-.28,2.37a.45.45,0,0,1-.45.4h-2.54v7.36h4.42a2.78,2.78,0,0,0,2.78-2.78V248.47A2.78,2.78,0,0,0,263.53,245.7Z" transform="translate(-238 -238)"/></svg>