<svg id="Layer_1" data-name="Layer 1" xmlns="http://www.w3.org/2000/svg" xmlns:xlink="http://www.w3.org/1999/xlink" viewBox="0 0 36 36"><defs><style>.cls-1{fill:url(#radial-gradient);}.cls-2{fill:#fff;}</style><radialGradient id="radial-gradient" cx="528.95" cy="555.07" r="684.44" gradientTransform="matrix(0, -0.08, -0.06, 0, 271.88, 312.85)" gradientUnits="userSpaceOnUse"><stop offset="0" stop-color="#fed576"/><stop offset="0.26" stop-color="#f47133"/><stop offset="0.61" stop-color="#bc3081"/><stop offset="1" stop-color="#4c63d2"/></radialGradient></defs><title>instaa</title><g id="Background"><path class="cls-1" d="M237.5,255.65v1a18.21,18.21,0,0,0,16.67,17.48h2.75a18.16,18.16,0,0,0,16.59-17.5v-1a18,18,0,0,0-36,0Z" transform="translate(-237.5 -238.1)"/></g><g id="Symbol"><path class="cls-2" d="M255.58,247.14c2.87,0,3.21,0,4.34.06a5.92,5.92,0,0,1,2,.37,3.29,3.29,0,0,1,1.23.81,3.46,3.46,0,0,1,.81,1.25,6.37,6.37,0,0,1,.37,2c.05,1.16.06,1.5.06,4.42s0,3.26-.06,4.42a6,6,0,0,1-.37,2,3.36,3.36,0,0,1-.81,1.25,3.29,3.29,0,0,1-1.23.81,5.77,5.77,0,0,1-2,.37c-1.13.05-1.48.06-4.34.06s-3.21,0-4.34-.06a5.92,5.92,0,0,1-2-.37,3.29,3.29,0,0,1-1.23-.81,3.46,3.46,0,0,1-.81-1.25,6.37,6.37,0,0,1-.37-2c-.05-1.16-.06-1.5-.06-4.42s0-3.26.06-4.42a6,6,0,0,1,.37-2,3.36,3.36,0,0,1,.81-1.25,3.29,3.29,0,0,1,1.23-.81,5.77,5.77,0,0,1,2-.37c1.13,0,1.48-.06,4.34-.06m0-2c-2.92,0-3.29,0-4.43.07a7.7,7.7,0,0,0-2.61.51,5.23,5.23,0,0,0-1.9,1.26,5.3,5.3,0,0,0-1.24,1.94,8.14,8.14,0,0,0-.5,2.65c-.05,1.16-.06,1.54-.06,4.5s0,3.34.06,4.5a8.18,8.18,0,0,0,.5,2.65,5.36,5.36,0,0,0,1.24,1.94,5.3,5.3,0,0,0,1.9,1.26,7.7,7.7,0,0,0,2.61.51c1.15.05,1.51.07,4.43.07s3.29,0,4.43-.07a7.7,7.7,0,0,0,2.61-.51,5.23,5.23,0,0,0,1.9-1.26,5.3,5.3,0,0,0,1.24-1.94,8.14,8.14,0,0,0,.5-2.65c.05-1.16.06-1.54.06-4.5s0-3.34-.06-4.5a8.18,8.18,0,0,0-.5-2.65,5.36,5.36,0,0,0-1.24-1.94,5.3,5.3,0,0,0-1.9-1.26,7.7,7.7,0,0,0-2.61-.51c-1.14-.05-1.51-.07-4.43-.07Z" transform="translate(-237.5 -238.1)"/><path class="cls-2" d="M255.58,250.49a5.61,5.61,0,1,0,5.51,5.61A5.56,5.56,0,0,0,255.58,250.49Zm0,9.25a3.64,3.64,0,1,1,3.58-3.64A3.61,3.61,0,0,1,255.58,259.74Z" transform="translate(-237.5 -238.1)"/><ellipse class="cls-2" cx="23.82" cy="12.17" rx="1.29" ry="1.31"/></g></svg>