<svg id="Layer_1" data-name="Layer 1" xmlns="http://www.w3.org/2000/svg" viewBox="0 0 36 36"><defs><style>.cls-1{fill:#d22215;}.cls-2{fill:#a81411;}.cls-3{fill:#fff;}.cls-4{fill:#d1d1d1;}</style></defs><title>youtubee</title><circle class="cls-1" cx="18" cy="18" r="18"/><path class="cls-2" d="M265.06,250c-.54.16-1.1.31-1.67.45-4,.85-9.33-1.45-11.64,2.3-1.92,3-2.53,6.73-4.71,9.4l11.67,11.67a18,18,0,0,0,15.08-15.08Z" transform="translate(-238 -238)"/><path class="cls-3" d="M262,248.71H250A4.28,4.28,0,0,0,245.7,253v6a4.28,4.28,0,0,0,4.28,4.28h12A4.28,4.28,0,0,0,266.3,259v-6a4.28,4.28,0,0,0-4.28-4.28Zm-2.89,7.58L253.5,259a.23.23,0,0,1-.32-.2v-5.54a.23.23,0,0,1,.33-.2l5.63,2.85a.23.23,0,0,1,0,.41Z" transform="translate(-238 -238)"/><path class="cls-4" d="M262,248.71h-6.14v5.53l3.25,1.65a.23.23,0,0,1,0,.41l-3.25,1.55v5.45H262A4.28,4.28,0,0,0,266.3,259v-6A4.28,4.28,0,0,0,262,248.71Z" transform="translate(-238 -238)"/></svg>